<?xml version="1.0" encoding="UTF-8"?>
<!DOCTYPE svg PUBLIC "-//W3C//DTD SVG 1.1//EN" "http://www.w3.org/Graphics/SVG/1.1/DTD/svg11.dtd">
<svg xmlns="http://www.w3.org/2000/svg" version="1.1" width="200px" height="200px" style="shape-rendering:geometricPrecision; text-rendering:geometricPrecision; image-rendering:optimizeQuality; fill-rule:evenodd; clip-rule:evenodd" xmlns:xlink="http://www.w3.org/1999/xlink">
<g><path style="opacity:0.985" fill="#479ad3" d="M 154.5,0.5 C 154.5,21.5 154.5,42.5 154.5,63.5C 152.833,63.5 151.167,63.5 149.5,63.5C 149.5,43.1667 149.5,22.8333 149.5,2.5C 150.93,1.46253 152.597,0.795864 154.5,0.5 Z"/></g>
<g><path style="opacity:0.989" fill="#4296d4" d="M 154.5,0.5 C 155.5,0.5 156.5,0.5 157.5,0.5C 157.5,21.5 157.5,42.5 157.5,63.5C 156.5,63.5 155.5,63.5 154.5,63.5C 154.5,42.5 154.5,21.5 154.5,0.5 Z"/></g>
<g><path style="opacity:0.993" fill="#3e93d4" d="M 157.5,0.5 C 158.5,0.5 159.5,0.5 160.5,0.5C 160.5,21.5 160.5,42.5 160.5,63.5C 159.5,63.5 158.5,63.5 157.5,63.5C 157.5,42.5 157.5,21.5 157.5,0.5 Z"/></g>
<g><path style="opacity:0.993" fill="#3a90d5" d="M 160.5,0.5 C 161.5,0.5 162.5,0.5 163.5,0.5C 163.5,21.5 163.5,42.5 163.5,63.5C 162.5,63.5 161.5,63.5 160.5,63.5C 160.5,42.5 160.5,21.5 160.5,0.5 Z"/></g>
<g><path style="opacity:0.993" fill="#358cd5" d="M 163.5,0.5 C 165.167,0.5 166.833,0.5 168.5,0.5C 168.5,21.5 168.5,42.5 168.5,63.5C 166.833,63.5 165.167,63.5 163.5,63.5C 163.5,42.5 163.5,21.5 163.5,0.5 Z"/></g>
<g><path style="opacity:0.993" fill="#2e87d6" d="M 168.5,0.5 C 170.167,0.5 171.833,0.5 173.5,0.5C 173.5,21.5 173.5,42.5 173.5,63.5C 171.833,63.5 170.167,63.5 168.5,63.5C 168.5,42.5 168.5,21.5 168.5,0.5 Z"/></g>
<g><path style="opacity:0.993" fill="#2a84d6" d="M 173.5,0.5 C 174.167,0.5 174.833,0.5 175.5,0.5C 175.5,21.5 175.5,42.5 175.5,63.5C 174.833,63.5 174.167,63.5 173.5,63.5C 173.5,42.5 173.5,21.5 173.5,0.5 Z"/></g>
<g><path style="opacity:0.992" fill="#2781d7" d="M 175.5,0.5 C 176.5,0.5 177.5,0.5 178.5,0.5C 178.5,21.5 178.5,42.5 178.5,63.5C 177.5,63.5 176.5,63.5 175.5,63.5C 175.5,42.5 175.5,21.5 175.5,0.5 Z"/></g>
<g><path style="opacity:0.986" fill="#227dd7" d="M 178.5,0.5 C 179.833,0.5 181.167,0.5 182.5,0.5C 182.5,21.1667 182.5,41.8333 182.5,62.5C 181.292,63.2341 179.959,63.5674 178.5,63.5C 178.5,42.5 178.5,21.5 178.5,0.5 Z"/></g>
<g><path style="opacity:0.988" fill="#1c78d8" d="M 182.5,0.5 C 184.5,0.5 186.5,0.5 188.5,0.5C 188.5,20.1667 188.5,39.8333 188.5,59.5C 186.819,61.0075 184.819,62.0075 182.5,62.5C 182.5,41.8333 182.5,21.1667 182.5,0.5 Z"/></g>
<g><path style="opacity:0.989" fill="#1573d9" d="M 188.5,0.5 C 190.167,0.5 191.833,0.5 193.5,0.5C 193.5,18.5 193.5,36.5 193.5,54.5C 192.167,56.5 190.5,58.1667 188.5,59.5C 188.5,39.8333 188.5,20.1667 188.5,0.5 Z"/></g>
<g><path style="opacity:0.976" fill="#0e6ed9" d="M 193.5,0.5 C 195.167,0.5 196.833,0.5 198.5,0.5C 198.667,15.837 198.5,31.1703 198,46.5C 197.246,49.6844 195.746,52.3511 193.5,54.5C 193.5,36.5 193.5,18.5 193.5,0.5 Z"/></g>
<g><path style="opacity:0.98" fill="#4d9fd2" d="M 149.5,2.5 C 149.5,22.8333 149.5,43.1667 149.5,63.5C 147.833,63.5 146.167,63.5 144.5,63.5C 144.5,44.1667 144.5,24.8333 144.5,5.5C 145.659,3.74973 147.326,2.74973 149.5,2.5 Z"/></g>
<g><path style="opacity:0.977" fill="#54a5d2" d="M 144.5,5.5 C 144.5,24.8333 144.5,44.1667 144.5,63.5C 142.833,63.5 141.167,63.5 139.5,63.5C 139.5,46.1667 139.5,28.8333 139.5,11.5C 140.419,8.91083 142.086,6.91083 144.5,5.5 Z"/></g>
<g><path style="opacity:0.775" fill="#59a9d1" d="M 139.5,11.5 C 139.5,28.8333 139.5,46.1667 139.5,63.5C 138.167,63.5 136.833,63.5 135.5,63.5C 135.333,48.4963 135.5,33.4963 136,18.5C 136.522,15.7187 137.689,13.3854 139.5,11.5 Z"/></g>
<g><path style="opacity:0.975" fill="#3f94d4" d="M 91.5,67.5 C 91.5,88.8333 91.5,110.167 91.5,131.5C 90.8333,131.5 90.1667,131.5 89.5,131.5C 89.5,110.5 89.5,89.5 89.5,68.5C 89.8417,67.6618 90.5084,67.3284 91.5,67.5 Z"/></g>
<g><path style="opacity:0.975" fill="#3c92d4" d="M 91.5,67.5 C 92.1667,67.5 92.8333,67.5 93.5,67.5C 93.5,88.8333 93.5,110.167 93.5,131.5C 92.8333,131.5 92.1667,131.5 91.5,131.5C 91.5,110.167 91.5,88.8333 91.5,67.5 Z"/></g>
<g><path style="opacity:0.975" fill="#3a90d5" d="M 93.5,67.5 C 94.1667,67.5 94.8333,67.5 95.5,67.5C 95.5,88.8333 95.5,110.167 95.5,131.5C 94.8333,131.5 94.1667,131.5 93.5,131.5C 93.5,110.167 93.5,88.8333 93.5,67.5 Z"/></g>
<g><path style="opacity:0.975" fill="#358cd5" d="M 95.5,67.5 C 97.5,67.5 99.5,67.5 101.5,67.5C 101.5,88.8333 101.5,110.167 101.5,131.5C 99.5,131.5 97.5,131.5 95.5,131.5C 95.5,110.167 95.5,88.8333 95.5,67.5 Z"/></g>
<g><path style="opacity:0.975" fill="#2e87d6" d="M 101.5,67.5 C 102.833,67.5 104.167,67.5 105.5,67.5C 105.5,88.8333 105.5,110.167 105.5,131.5C 104.167,131.5 102.833,131.5 101.5,131.5C 101.5,110.167 101.5,88.8333 101.5,67.5 Z"/></g>
<g><path style="opacity:0.975" fill="#2a84d6" d="M 105.5,67.5 C 106.167,67.5 106.833,67.5 107.5,67.5C 107.5,88.8333 107.5,110.167 107.5,131.5C 106.833,131.5 106.167,131.5 105.5,131.5C 105.5,110.167 105.5,88.8333 105.5,67.5 Z"/></g>
<g><path style="opacity:0.974" fill="#2781d7" d="M 107.5,67.5 C 108.5,67.5 109.5,67.5 110.5,67.5C 110.5,88.8333 110.5,110.167 110.5,131.5C 109.5,131.5 108.5,131.5 107.5,131.5C 107.5,110.167 107.5,88.8333 107.5,67.5 Z"/></g>
<g><path style="opacity:0.972" fill="#227ed7" d="M 110.5,67.5 C 112.167,67.5 113.833,67.5 115.5,67.5C 115.5,88.5 115.5,109.5 115.5,130.5C 113.883,131.038 112.216,131.371 110.5,131.5C 110.5,110.167 110.5,88.8333 110.5,67.5 Z"/></g>
<g><path style="opacity:0.972" fill="#1b78d8" d="M 115.5,67.5 C 117.167,67.5 118.833,67.5 120.5,67.5C 120.5,87.5 120.5,107.5 120.5,127.5C 119.035,128.737 117.368,129.737 115.5,130.5C 115.5,109.5 115.5,88.5 115.5,67.5 Z"/></g>
<g><path style="opacity:0.968" fill="#1573d9" d="M 120.5,67.5 C 122.167,67.5 123.833,67.5 125.5,67.5C 125.5,85.8333 125.5,104.167 125.5,122.5C 124.578,124.816 122.911,126.483 120.5,127.5C 120.5,107.5 120.5,87.5 120.5,67.5 Z"/></g>
<g><path style="opacity:0.956" fill="#0f6ed9" d="M 125.5,67.5 C 126.833,67.5 128.167,67.5 129.5,67.5C 129.5,83.5 129.5,99.5 129.5,115.5C 129.445,118.614 128.112,120.948 125.5,122.5C 125.5,104.167 125.5,85.8333 125.5,67.5 Z"/></g>
<g><path style="opacity:0.539" fill="#0b6bda" d="M 129.5,67.5 C 130.117,67.6107 130.617,67.944 131,68.5C 131.667,82.8333 131.667,97.1667 131,111.5C 130.79,113.058 130.29,114.391 129.5,115.5C 129.5,99.5 129.5,83.5 129.5,67.5 Z"/></g>
<g><path style="opacity:0.981" fill="#51b2e4" d="M 180.5,199.5 C 165.5,199.5 150.5,199.5 135.5,199.5C 135.024,160.452 135.524,121.452 137,82.5C 140.223,76.2767 145.057,71.7767 151.5,69C 167.117,67.5804 182.784,67.0804 198.5,67.5C 198.667,105.835 198.5,144.168 198,182.5C 194.891,191.111 189.057,196.778 180.5,199.5 Z"/></g>
<g><path style="opacity:0.982" fill="#469ad3" d="M 86.5,68.5 C 86.5,89.5 86.5,110.5 86.5,131.5C 85.5,131.5 84.5,131.5 83.5,131.5C 83.5,110.833 83.5,90.1667 83.5,69.5C 84.391,68.8902 85.391,68.5569 86.5,68.5 Z"/></g>
<g><path style="opacity:0.988" fill="#4296d4" d="M 86.5,68.5 C 87.5,68.5 88.5,68.5 89.5,68.5C 89.5,89.5 89.5,110.5 89.5,131.5C 88.5,131.5 87.5,131.5 86.5,131.5C 86.5,110.5 86.5,89.5 86.5,68.5 Z"/></g>
<g><path style="opacity:0.979" fill="#499dd3" d="M 83.5,69.5 C 83.5,90.1667 83.5,110.833 83.5,131.5C 82.8333,131.5 82.1667,131.5 81.5,131.5C 81.5,111.167 81.5,90.8333 81.5,70.5C 81.8417,69.6618 82.5084,69.3284 83.5,69.5 Z"/></g>
<g><path style="opacity:0.977" fill="#4da0d2" d="M 81.5,70.5 C 81.5,90.8333 81.5,111.167 81.5,131.5C 79.8333,131.5 78.1667,131.5 76.5,131.5C 76.5,112.167 76.5,92.8333 76.5,73.5C 77.6594,71.7497 79.326,70.7497 81.5,70.5 Z"/></g>
<g><path style="opacity:0.971" fill="#54a5d1" d="M 76.5,73.5 C 76.5,92.8333 76.5,112.167 76.5,131.5C 74.8333,131.5 73.1667,131.5 71.5,131.5C 71.5,114.167 71.5,96.8333 71.5,79.5C 72.4194,76.9108 74.086,74.9108 76.5,73.5 Z"/></g>
<g><path style="opacity:0.77" fill="#59aad1" d="M 71.5,79.5 C 71.5,96.8333 71.5,114.167 71.5,131.5C 70.1667,131.5 68.8333,131.5 67.5,131.5C 67.3334,116.83 67.5001,102.163 68,87.5C 68.3874,84.4006 69.5541,81.734 71.5,79.5 Z"/></g>
<g><path style="opacity:0.975" fill="#4296d4" d="M 22.5,135.5 C 22.5,156.833 22.5,178.167 22.5,199.5C 21.5,199.5 20.5,199.5 19.5,199.5C 19.5,178.5 19.5,157.5 19.5,136.5C 20.391,135.89 21.391,135.557 22.5,135.5 Z"/></g>
<g><path style="opacity:0.972" fill="#3e93d4" d="M 22.5,135.5 C 23.5,135.5 24.5,135.5 25.5,135.5C 25.5,156.833 25.5,178.167 25.5,199.5C 24.5,199.5 23.5,199.5 22.5,199.5C 22.5,178.167 22.5,156.833 22.5,135.5 Z"/></g>
<g><path style="opacity:0.972" fill="#3a90d5" d="M 25.5,135.5 C 26.5,135.5 27.5,135.5 28.5,135.5C 28.5,156.833 28.5,178.167 28.5,199.5C 27.5,199.5 26.5,199.5 25.5,199.5C 25.5,178.167 25.5,156.833 25.5,135.5 Z"/></g>
<g><path style="opacity:0.972" fill="#348cd5" d="M 28.5,135.5 C 30.5,135.5 32.5,135.5 34.5,135.5C 34.5,156.833 34.5,178.167 34.5,199.5C 32.5,199.5 30.5,199.5 28.5,199.5C 28.5,178.167 28.5,156.833 28.5,135.5 Z"/></g>
<g><path style="opacity:0.972" fill="#2e87d6" d="M 34.5,135.5 C 35.8333,135.5 37.1667,135.5 38.5,135.5C 38.5,156.833 38.5,178.167 38.5,199.5C 37.1667,199.5 35.8333,199.5 34.5,199.5C 34.5,178.167 34.5,156.833 34.5,135.5 Z"/></g>
<g><path style="opacity:0.972" fill="#2a84d6" d="M 38.5,135.5 C 39.1667,135.5 39.8333,135.5 40.5,135.5C 40.5,156.833 40.5,178.167 40.5,199.5C 39.8333,199.5 39.1667,199.5 38.5,199.5C 38.5,178.167 38.5,156.833 38.5,135.5 Z"/></g>
<g><path style="opacity:0.971" fill="#2781d7" d="M 40.5,135.5 C 41.5,135.5 42.5,135.5 43.5,135.5C 43.5,156.833 43.5,178.167 43.5,199.5C 42.5,199.5 41.5,199.5 40.5,199.5C 40.5,178.167 40.5,156.833 40.5,135.5 Z"/></g>
<g><path style="opacity:0.974" fill="#227dd7" d="M 43.5,135.5 C 44.8333,135.5 46.1667,135.5 47.5,135.5C 47.5,156.5 47.5,177.5 47.5,198.5C 46.5084,198.328 45.8417,198.662 45.5,199.5C 44.8333,199.5 44.1667,199.5 43.5,199.5C 43.5,178.167 43.5,156.833 43.5,135.5 Z"/></g>
<g><path style="opacity:0.973" fill="#1c78d8" d="M 47.5,135.5 C 49.5,135.5 51.5,135.5 53.5,135.5C 53.5,155.5 53.5,175.5 53.5,195.5C 51.7105,196.877 49.7105,197.877 47.5,198.5C 47.5,177.5 47.5,156.5 47.5,135.5 Z"/></g>
<g><path style="opacity:0.971" fill="#1573d9" d="M 53.5,135.5 C 55.1667,135.5 56.8333,135.5 58.5,135.5C 58.5,153.833 58.5,172.167 58.5,190.5C 57.1667,192.5 55.5,194.167 53.5,195.5C 53.5,175.5 53.5,155.5 53.5,135.5 Z"/></g>
<g><path style="opacity:0.957" fill="#0f6ed9" d="M 58.5,135.5 C 59.8333,135.5 61.1667,135.5 62.5,135.5C 62.5,151.5 62.5,167.5 62.5,183.5C 61.9213,186.331 60.588,188.664 58.5,190.5C 58.5,172.167 58.5,153.833 58.5,135.5 Z"/></g>
<g><path style="opacity:0.503" fill="#0b6bda" d="M 62.5,135.5 C 63.1174,135.611 63.6174,135.944 64,136.5C 64.6667,150.167 64.6667,163.833 64,177.5C 63.8091,179.708 63.3091,181.708 62.5,183.5C 62.5,167.5 62.5,151.5 62.5,135.5 Z"/></g>
<g><path style="opacity:0.958" fill="#51b2e4" d="M 112.5,199.5 C 97.5,199.5 82.5,199.5 67.5,199.5C 67.3334,184.83 67.5001,170.163 68,155.5C 70.6182,144.548 77.4515,138.048 88.5,136C 102.829,135.5 117.163,135.333 131.5,135.5C 131.938,151.557 131.438,167.557 130,183.5C 126.497,191.508 120.664,196.841 112.5,199.5 Z"/></g>
<g><path style="opacity:0.977" fill="#479ad3" d="M 19.5,136.5 C 19.5,157.5 19.5,178.5 19.5,199.5C 17.8333,199.5 16.1667,199.5 14.5,199.5C 14.5,179.167 14.5,158.833 14.5,138.5C 15.7804,137.069 17.4471,136.402 19.5,136.5 Z"/></g>
<g><path style="opacity:0.976" fill="#4d9fd2" d="M 14.5,138.5 C 14.5,158.833 14.5,179.167 14.5,199.5C 12.8333,199.5 11.1667,199.5 9.5,199.5C 9.5,180.167 9.5,160.833 9.5,141.5C 10.6594,139.75 12.326,138.75 14.5,138.5 Z"/></g>
<g><path style="opacity:0.972" fill="#54a5d1" d="M 9.5,141.5 C 9.5,160.833 9.5,180.167 9.5,199.5C 7.83333,199.5 6.16667,199.5 4.5,199.5C 4.5,181.833 4.5,164.167 4.5,146.5C 5.83333,144.5 7.5,142.833 9.5,141.5 Z"/></g>
<g><path style="opacity:0.76" fill="#59aad1" d="M 4.5,146.5 C 4.5,164.167 4.5,181.833 4.5,199.5C 3.16667,199.5 1.83333,199.5 0.5,199.5C 0.333416,184.496 0.500082,169.496 1,154.5C 1.70477,151.524 2.87143,148.858 4.5,146.5 Z"/></g>
</svg>
